# xmcd
#
# Track frame offsets: 
#        150
#        14801
#        25889
#        37259
#        50157
#        73560
#        87104
#        103195
#        122846
#        138245
#        153840
#        169907
#        184501
#        199452
#        219084
#        232395
#        252681
#
# Disc length: 3564 seconds
#
# Revision: 0
# Processed by: cddbd v1.5.2PL0 Copyright (c) Steve Scherf et al.
# Submitted via: ExactAudioCopyFreeDBPlugin 1.0
#
DISCID=020dea11
DTITLE=Virgis Stakenas - Jumbo (country klasika lietuviskai) 
DYEAR=1997
DGENRE=Country
TTITLE0=Traku pilis
TTITLE1=Kelias bega greit
TTITLE2=Mano miela
TTITLE3=Biografija
TTITLE4=Dieve, dovanok
TTITLE5=Liusilei
TTITLE6=Tevu namu slenkstis
TTITLE7=Be taves
TTITLE8=Snaudzia malunas prie kelio
TTITLE9=Zinau
TTITLE10=Traukinys
TTITLE11=Tu nezinai
TTITLE12=Kai pirmakart
TTITLE13=Mano ranca
TTITLE14=Testamentas
TTITLE15=Grisiu
TTITLE16=Uz musu jaunas dieneles
EXTD=
EXTT0=
EXTT1=
EXTT2=
EXTT3=
EXTT4=
EXTT5=
EXTT6=
EXTT7=
EXTT8=
EXTT9=
EXTT10=
EXTT11=
EXTT12=
EXTT13=
EXTT14=
EXTT15=
EXTT16=
PLAYORDER=
